<svg height="128" style="enable-background:new 0 0 143 128" width="143" xml:space="preserve" xmlns="http://www.w3.org/2000/svg"><style>.st0{fill:#ef3e42}.st1{fill:#fff}.st3{fill-rule:evenodd;clip-rule:evenodd;fill:#fff}</style><path d="M132.2 105.3 96.1 69l36.2-36.1v72.4h-.1zm-117.3 6.8 36.4-36.4 8 7.9c3 3 6.6 5 11 5s8-2 11-5l8-7.9 36.4 36.4H14.9zm111-86.8L74 77.4c-1 1-1.9 1.6-3.7 1.6s-2.7-.6-3.7-1.6L14.7 25.3h111.2zM8.4 32.9 44.6 69 8.4 105.3V32.9z"/><path id="_x3C_Slice_x3E__100_" style="fill:none" d="M0 0h143v128H0z"/></svg>