<?xml version="1.0" encoding="UTF-8" standalone="no"?>
<!-- Created with Inkscape (http://www.inkscape.org/) -->

<svg version="1.1" id="svg884" width="99.515503" height="99.694183" viewBox="0 0 99.515501 99.694183" sodipodi:docname="chained-dark.svg" inkscape:version="1.1.1 (3bf5ae0d25, 2021-09-20)" xmlns:inkscape="http://www.inkscape.org/namespaces/inkscape" xmlns:sodipodi="http://sodipodi.sourceforge.net/DTD/sodipodi-0.dtd" xmlns="http://www.w3.org/2000/svg" xmlns:svg="http://www.w3.org/2000/svg">
  <sodipodi:namedview id="namedview2704" pagecolor="#505050" bordercolor="#eeeeee" borderopacity="1" inkscape:pageshadow="0" inkscape:pageopacity="0" inkscape:pagecheckerboard="0" showgrid="false" inkscape:zoom="5.0996935" inkscape:cx="42.453532" inkscape:cy="56.572028" inkscape:window-width="2560" inkscape:window-height="1398" inkscape:window-x="0" inkscape:window-y="0" inkscape:window-maximized="1" inkscape:current-layer="g974" />
  <defs id="defs888" />
  <g id="g890" transform="translate(-348.42055,-351.49087)">
    <g id="g974" transform="translate(-30.488093,-21.79352)">
      <path style="fill:#0c0c0d;fill-opacity:0.8;stroke-width:0.124546" d="m 405.69639,472.80487 c -4.61207,-0.5183 -9.15622,-2.28636 -12.35726,-4.80803 -2.20979,-1.74081 -8.98414,-8.74316 -10.15156,-10.49322 -1.66801,-2.50053 -3.4375,-6.81396 -4.0395,-9.84693 -0.32068,-1.61576 -0.31878,-8.99359 0.003,-10.39952 0.64031,-2.8003 1.83389,-5.64713 3.28117,-7.82598 0.86161,-1.29714 3.57821,-4.15811 10.26663,-10.8122 6.18542,-6.15368 7.12165,-7.00775 6.90826,-6.30197 -0.0362,0.11986 -0.12503,0.69433 -0.1973,1.27658 -0.65901,5.30944 0.12508,10.7303 2.24462,15.51825 l 0.63594,1.43655 -3.27866,3.32372 c -1.80326,1.82803 -3.54324,3.67715 -3.86662,4.10916 -0.79002,1.0554 -1.09138,2.05328 -1.18124,3.91145 -0.13444,2.78022 0.69914,5.44344 2.35881,7.5362 1.95914,2.47035 6.82117,7.00206 8.31536,7.75045 1.20174,0.60188 2.34295,0.81474 4.35908,0.813 1.53591,-9.3e-4 1.93625,-0.0438 2.67772,-0.28434 1.08918,-0.35331 1.38226,-0.55943 3.26503,-2.29615 1.95159,-1.80024 17.88185,-17.77431 19.55333,-19.60713 1.67321,-1.83469 1.7179,-1.97211 1.71463,-5.27303 -0.002,-2.31531 -0.0183,-2.47603 -0.34426,-3.44459 -0.54289,-1.61328 -0.87912,-2.05387 -4.80533,-6.29687 -2.08135,-2.24929 -2.13389,-2.33929 -2.13389,-3.65513 0,-1.87859 -0.12106,-1.69757 3.66392,-5.47878 1.9753,-1.97331 3.56199,-3.45732 3.82929,-3.58147 0.63554,-0.29515 1.79207,-0.39433 2.4704,-0.21185 0.33755,0.0908 0.90718,0.42778 1.43225,0.84728 1.19286,0.95298 5.0543,4.84179 6.0457,6.08856 4.19828,5.27969 6.04807,13.72507 4.59443,20.97626 -0.35824,1.78702 -1.17216,4.23088 -1.92463,5.77884 -1.2917,2.6573 -2.53595,4.04102 -13.55096,15.06996 -9.23554,9.24722 -11.76295,11.67518 -13.04334,12.53011 -4.46389,2.98056 -10.66943,4.33355 -16.74473,3.65082 z m 12.62192,-34.35128 c -0.96649,-0.34523 -1.71698,-0.9306 -3.75311,-2.92732 -3.60457,-3.53481 -5.28316,-5.65381 -6.57092,-8.29498 -2.93829,-6.02636 -3.24767,-13.88014 -0.80461,-20.4254 0.56828,-1.52246 1.49914,-3.36617 2.22918,-4.41519 0.79777,-1.14635 4.55183,-5.01944 14.14975,-14.59841 8.73676,-8.71948 10.37426,-10.2605 11.89407,-11.19315 6.58302,-4.03982 15.9313,-4.41492 24.22403,-0.97202 3.42143,1.42048 4.89716,2.51857 9.2891,6.91205 4.74741,4.74905 5.7146,6.02887 7.18554,9.50812 2.63973,6.24383 2.99107,13.67186 0.94254,19.92723 -0.52058,1.58968 -1.44959,3.54491 -2.27042,4.7784 -0.8867,1.33251 -3.93588,4.54201 -10.55263,11.10742 -4.84533,4.80773 -6.65461,6.50606 -6.78851,6.37216 -0.0242,-0.0242 0.0498,-0.48849 0.16446,-1.03173 0.16489,-0.78123 0.20969,-1.70357 0.21426,-4.41267 0.005,-3.06577 -0.0242,-3.58173 -0.27931,-4.91953 -0.52339,-2.74385 -1.07593,-4.48463 -2.15092,-6.77644 l -0.64373,-1.3724 3.10204,-3.08692 c 5.13428,-5.10922 5.271,-5.33623 5.27286,-8.75373 9.3e-4,-2.04884 -0.22918,-3.72577 -0.6739,-4.90727 -0.29555,-0.78522 -0.40358,-0.9909 -1.05309,-2.00498 -0.90711,-1.41628 -4.15098,-4.79889 -5.82793,-6.07721 -1.60264,-1.22165 -3.35264,-1.96765 -5.16917,-2.20353 -1.25128,-0.16246 -4.41384,-0.15478 -5.02161,0.0122 -0.76009,0.20885 -1.97608,1.07666 -3.68203,2.62774 -2.04795,1.86202 -15.59728,15.43058 -18.04566,18.07128 -1.68197,1.81407 -1.96771,2.18375 -2.26299,2.92788 -0.47858,1.20601 -0.6593,2.6338 -0.56176,4.438 0.17199,3.181 0.4513,3.70029 4.06375,7.55572 2.85966,3.05196 3.20631,3.52403 3.39445,4.62245 0.17955,1.04819 -0.0299,1.63636 -1.02418,2.87621 -0.80311,1.00143 -3.97695,4.1475 -5.6359,5.58656 -1.37511,1.19286 -2.21575,1.45592 -3.35365,1.04945 z" id="path976" />
    </g>
  </g>
</svg>
