<?xml version="1.0" encoding="UTF-8" standalone="no"?>
<!-- Generator: Adobe Illustrator 19.0.0, SVG Export Plug-In . SVG Version: 6.00 Build 0)  -->

<svg
   version="1.1"
   id="Capa_1"
   x="0px"
   y="0px"
   viewBox="0 0 492.883 492.883"
   style="enable-background:new 0 0 492.883 492.883;"
   xml:space="preserve"
   sodipodi:docname="refresh-dark.svg"
   inkscape:version="1.2.1 (9c6d41e410, 2022-07-14)"
   xmlns:inkscape="http://www.inkscape.org/namespaces/inkscape"
   xmlns:sodipodi="http://sodipodi.sourceforge.net/DTD/sodipodi-0.dtd"
   xmlns="http://www.w3.org/2000/svg"
   xmlns:svg="http://www.w3.org/2000/svg"><defs
   id="defs43" /><sodipodi:namedview
   id="namedview41"
   pagecolor="#ffffff"
   bordercolor="#000000"
   borderopacity="0.25"
   inkscape:showpageshadow="2"
   inkscape:pageopacity="0.0"
   inkscape:pagecheckerboard="0"
   inkscape:deskcolor="#d1d1d1"
   showgrid="false"
   inkscape:zoom="1.0418294"
   inkscape:cx="224.12498"
   inkscape:cy="362.82331"
   inkscape:window-width="1278"
   inkscape:window-height="1419"
   inkscape:window-x="0"
   inkscape:window-y="19"
   inkscape:window-maximized="1"
   inkscape:current-layer="Capa_1" />
<g
   id="g8">
	<g
   id="g6">
		<path
   d="M122.941,374.241c-20.1-18.1-34.6-39.8-44.1-63.1c-25.2-61.8-13.4-135.3,35.8-186l45.4,45.4c2.5,2.5,7,0.7,7.6-3    l24.8-162.3c0.4-2.7-1.9-5-4.6-4.6l-162.4,24.8c-3.7,0.6-5.5,5.1-3,7.6l45.5,45.5c-75.1,76.8-87.9,192-38.6,282    c14.8,27.1,35.3,51.9,61.4,72.7c44.4,35.3,99,52.2,153.2,51.1l10.2-66.7C207.441,421.641,159.441,407.241,122.941,374.241z"
   id="path2" />
		<path
   d="M424.941,414.341c75.1-76.8,87.9-192,38.6-282c-14.8-27.1-35.3-51.9-61.4-72.7c-44.4-35.3-99-52.2-153.2-51.1l-10.2,66.7    c46.6-4,94.7,10.4,131.2,43.4c20.1,18.1,34.6,39.8,44.1,63.1c25.2,61.8,13.4,135.3-35.8,186l-45.4-45.4c-2.5-2.5-7-0.7-7.6,3    l-24.8,162.3c-0.4,2.7,1.9,5,4.6,4.6l162.4-24.8c3.7-0.6,5.4-5.1,3-7.6L424.941,414.341z"
   id="path4" />
	</g>
</g>
<g
   id="g10">
</g>
<g
   id="g12">
</g>
<g
   id="g14">
</g>
<g
   id="g16">
</g>
<g
   id="g18">
</g>
<g
   id="g20">
</g>
<g
   id="g22">
</g>
<g
   id="g24">
</g>
<g
   id="g26">
</g>
<g
   id="g28">
</g>
<g
   id="g30">
</g>
<g
   id="g32">
</g>
<g
   id="g34">
</g>
<g
   id="g36">
</g>
<g
   id="g38">
</g>
</svg>
