<?xml version="1.0" encoding="UTF-8" standalone="no"?>
<!-- Created with Inkscape (http://www.inkscape.org/) -->

<svg version="1.1" id="svg3071" width="474.44968" height="474.11392" viewBox="0 0 474.44968 474.11392" sodipodi:docname="unchained-dark.svg" inkscape:version="1.1.1 (3bf5ae0d25, 2021-09-20)" xmlns:inkscape="http://www.inkscape.org/namespaces/inkscape" xmlns:sodipodi="http://sodipodi.sourceforge.net/DTD/sodipodi-0.dtd" xmlns="http://www.w3.org/2000/svg" xmlns:svg="http://www.w3.org/2000/svg">
  <defs id="defs3075" />
  <sodipodi:namedview id="namedview3073" pagecolor="#505050" bordercolor="#eeeeee" borderopacity="1" inkscape:pageshadow="0" inkscape:pageopacity="0" inkscape:pagecheckerboard="0" showgrid="false" inkscape:zoom="1.5168776" inkscape:cx="304.90264" inkscape:cy="295.67316" inkscape:window-width="2560" inkscape:window-height="1398" inkscape:window-x="0" inkscape:window-y="0" inkscape:window-maximized="1" inkscape:current-layer="g3077" inkscape:document-units="pc" fit-margin-top="0" fit-margin-left="0" fit-margin-right="0" fit-margin-bottom="0" />
  <g inkscape:groupmode="layer" inkscape:label="Image" id="g3077" transform="translate(-7.8958157,-12.223487)">
    <path style="fill:#0c0c0d;fill-opacity:0.80000001" d="m 190.8972,478.14532 c 14.38389,-6.80251 19.31768,-11.11677 67.24862,-58.80434 25.7125,-25.58194 46.75,-46.98997 46.75,-47.57339 0,-0.58342 -10.01527,-11.06862 -22.25616,-23.30044 l -22.25616,-22.23967 -44.99384,45.06211 c -24.74661,24.78416 -47.01884,46.27076 -49.49384,47.748 -3.93879,2.35093 -5.56006,2.6859 -13,2.6859 -7.45514,0 -9.05316,-0.33173 -13,-2.69861 -2.475,-1.48423 -18.04537,-16.33423 -34.60082,-33 C 71.387106,351.89105 71.236666,351.68 72.110376,339.4688 c 0.26607,-3.71869 1.27369,-8.33267 2.23915,-10.25328 0.96546,-1.92062 22.40695,-24.19709 47.647754,-49.50326 l 45.89237,-46.01124 -22.77691,-22.76077 -22.77692,-22.76077 -47.035494,47.27201 c -48.23369,48.47622 -52.51383,53.36558 -59.32634,67.77062 -1.65338,3.49607 -3.79702,9.42659 -4.76364,13.17894 -0.96663,3.75234 -2.1078403,6.82244 -2.5360203,6.82244 -0.42818,0 -0.77851,8.1 -0.77851,18 0,9.9 0.35033,18 0.77851,18 0.42818,0 1.5693903,3.0701 2.5360203,6.82244 2.18448,8.47995 6.37756,17.44122 12.39921,26.49908 6.26054,9.41718 68.67464,71.78869 78.123824,78.07049 19.49338,12.45687 33.31622,15.63241 51.16244,15.60799 14.17984,0.72715 24.93938,-2.03399 38.00138,-8.07817 z m 147.43349,-18.67183 c 2.59322,-9.7625 7.20694,-26.9044 10.25271,-38.09312 3.04578,-11.18871 5.59957,-21.72359 5.6751,-23.41085 l 0.13732,-3.06773 -12,-3.26655 c -6.6,-1.79661 -13.40445,-3.53373 -15.121,-3.86027 l -3.12101,-0.59371 -2.00929,7.77112 c -1.10512,4.27411 -5.91885,22.32911 -10.69719,40.12222 -4.77834,17.79311 -8.44633,32.98061 -8.15108,33.75 0.29524,0.76939 1.2129,1.39889 2.03925,1.39889 0.82635,0 7.24857,1.575 14.27161,3.5 7.02304,1.925 13.04804,3.5 13.3889,3.5 0.34086,0 2.74147,-7.9875 5.33468,-17.75 z m 92.0726,-27.25751 10.97337,-11.0075 -30.20553,-30.20553 -30.20552,-30.20553 -11.02855,10.96303 c -6.06571,6.02967 -11.03141,11.26413 -11.0349,11.63213 -0.009,0.98191 58.6997,59.83091 59.68859,59.83091 0.46154,0 5.77718,-4.95338 11.81254,-11.00751 z m -17.00748,-79.65549 c 11,-2.97438 29.22086,-7.90035 40.4908,-10.94661 11.26994,-3.04626 20.63478,-5.68264 20.81076,-5.85862 0.41132,-0.41131 -7.56005,-29.62359 -8.28008,-30.34362 -0.29824,-0.29824 -7.40007,1.31115 -15.78186,3.5764 -8.38179,2.26526 -26.48962,7.1333 -40.23962,10.81787 -13.75,3.68457 -25.18909,6.86245 -25.42021,7.06195 -0.4477,0.38645 6.76172,28.08321 7.80324,29.9781 0.42541,0.77396 6.82677,-0.55664 20.61697,-4.28547 z m 1.63484,-90.06022 c 48.05121,-48.21465 51.80776,-52.51785 58.85533,-67.41993 1.61579,-3.41658 3.72867,-9.28206 4.6953,-13.03441 5.80662,-16.72776 4.12863,-33.50368 0.12641,-49.04345 -2.26632,-8.92415 -6.36546,-17.81498 -12.51861,-27.15222 -6.55918,-9.95338 -68.07507,-71.50959 -77.86433,-77.915375 -9.288,-6.077774 -18.20543,-10.232709 -26.60649,-12.396872 -3.75234,-0.966626 -6.82244,-2.107833 -6.82244,-2.536015 0,-0.428181 -8.1,-0.778511 -18,-0.778511 -9.9,0 -18,0.35033 -18,0.778511 0,0.428182 -3.0701,1.569389 -6.82244,2.536015 -3.75235,0.966627 -9.68287,3.110268 -13.17894,4.763647 -14.4347,6.826535 -19.28979,11.072294 -67.27676,58.833255 -25.72798,25.606805 -46.65298,47.143465 -46.5,47.859245 0.15298,0.71577 10.16831,11.18419 22.25629,23.26315 l 21.97816,21.96175 46.52184,-46.36805 c 52.11958,-51.947284 50.05065,-50.323495 62.94374,-49.400999 5.01106,0.358539 8.12532,1.206247 11.25328,3.063168 5.54514,3.291878 63.03369,61.076271 65.36596,65.702341 0.96829,1.92061 1.97823,6.53459 2.2443,10.25328 0.9085,12.69753 2.44055,10.75103 -49.40056,62.76414 l -46.35567,46.50944 21.92628,21.99056 c 12.05946,12.0948 22.51913,22.1151 23.24371,22.26733 0.72459,0.15223 22.29563,-20.77277 47.93564,-46.5 z M 25.395816,187.041 c 1.65,-0.47934 19.5685,-5.31536 39.81888,-10.74673 20.25039,-5.43137 37.100044,-10.15636 37.443664,-10.49999 0.34363,-0.34362 -0.36251,-4.32513 -1.5692,-8.84778 -1.206684,-4.52266 -2.963744,-11.14801 -3.904574,-14.72301 -0.94083,-3.575 -1.83423,-6.68104 -1.98533,-6.90231 -0.28941,-0.42381 -4.98474,0.75099 -27.80344,6.95659 -7.7,2.09403 -22.775,6.11692 -33.5,8.93975 -10.725,2.82284 -19.81369,5.44148 -20.19709,5.8192 -0.71342,0.70286 6.85596,29.20591 8.04161,30.28128 0.36051,0.32698 2.00548,0.20233 3.65548,-0.277 z m 93.007484,-66.82502 10.97338,-11.0075 -29.999634,-29.999632 -29.99963,-29.999627 -11.3652,11.397532 -11.3652,11.397532 29.53039,29.609605 c 16.24172,16.28528 29.917874,29.6096 30.391464,29.6096 0.47358,0 5.79908,-4.95338 11.83443,-11.00751 z m 45.57228,-16.37884 c 0.50195,-1.16251 2.76329,-9.088653 5.02521,-17.613653 2.26192,-8.525 6.9168,-26.004187 10.34418,-38.842638 4.79939,-17.97778 5.92755,-23.459314 4.90866,-23.850299 -4.97384,-1.908641 -28.98651,-7.963834 -29.53058,-7.446623 -1.0752,1.022136 -22.40573,80.961951 -21.73581,81.458682 0.22472,0.166626 7.08368,2.126633 15.24214,4.355571 14.7886,4.04034 14.83633,4.04621 15.7462,1.93896 z" id="path3238" sodipodi:nodetypes="cssscsssssssscccsssssssscccssscsscsssssssscccscsssssssssssssccssssssssssscsssssscssssssssssssssscccccsssssssssss" />
  </g>
</svg>
